<svg width="1507" height="709" viewBox="0 0 1507 709" fill="none" xmlns="http://www.w3.org/2000/svg">
<path fill-rule="evenodd" clip-rule="evenodd" d="M1414.73 0.802246H91.9563C40.1216 7.2249 0 51.427 0 105V369.591C29.3564 483.803 219.447 708.109 752.298 708.109C1274.38 708.109 1470.06 492.779 1506.69 376.649V105C1506.69 51.427 1466.57 7.2249 1414.73 0.802246Z" fill="#080808"/>
<path fill-rule="evenodd" clip-rule="evenodd" d="M105 0C100.583 0 96.2299 0.272722 91.9563 0.802246C40.1216 7.2249 0 51.427 0 105V369.591C29.3564 483.803 219.447 708.109 752.298 708.109C1274.38 708.109 1470.06 492.779 1506.69 376.649V105C1506.69 51.427 1466.57 7.2249 1414.73 0.802246C1410.46 0.27272 1406.11 0 1401.69 0H105Z" fill="#080808"/>
</svg>
